<svg width="151" height="33" viewBox="0 0 151 33" fill="none"
      xmlns="http://www.w3.org/2000/svg">
      <path d="M31.7776 3.23859L31.0281 4.64298C30.8278 5.01823 30.3939 5.26066 29.9227 5.26066C29.4539 5.26066 29.0204 5.01906 28.8181 4.64505L28.0616 3.24645L5.07181 12.9053H12.8602C18.0128 12.9053 22.2047 16.6044 22.2047 21.1513V22.7041H37.7953V21.1513C37.7953 16.6044 41.9872 12.9053 47.1399 12.9053H54.9907L31.7776 3.23859Z" fill="#BEF6FF"/>
      <path d="M31.7776 3.23859L31.0281 4.64298C30.839 4.99742 30.4406 5.23064 30.0001 5.25569V22.7041H37.7954V21.1513C37.7954 16.6044 41.9873 12.9053 47.14 12.9053H54.9908L31.7776 3.23859Z" fill="#46E4FF"/>
      <path d="M12.8587 9.79982C5.7684 9.80106 0 14.8933 0 21.1513C0 27.4111 5.769 32.5039 12.8602 32.5039C19.9513 32.5039 25.7203 27.4111 25.7203 21.1513C25.7203 14.8921 19.9513 9.79982 12.8587 9.79982Z" fill="#7467D3"/>
      <path d="M12.8603 15.0603C9.0556 15.0603 5.9603 17.7929 5.9603 21.1517C5.9603 24.5105 9.0556 27.2431 12.8603 27.2431C16.665 27.2431 19.7603 24.5105 19.7603 21.1517C19.7603 17.7929 16.665 15.0603 12.8603 15.0603Z" fill="#FFEC88"/>
      <path d="M47.1399 9.79982C40.0487 9.79982 34.2797 14.8921 34.2797 21.1513C34.2797 27.4111 40.0487 32.5039 47.1399 32.5039C54.231 32.5039 60 27.4111 60 21.1513C60 14.8933 54.2316 9.80106 47.1399 9.79982Z" fill="#7467D3"/>
      <path d="M47.1398 9.79982V32.5039C54.231 32.5039 60 27.4111 60 21.1513C60 14.8933 54.2316 9.80106 47.1398 9.79982Z" fill="#5546A4"/>
      <path d="M47.1397 15.0603C43.335 15.0603 40.2397 17.7929 40.2397 21.1517C40.2397 24.5105 43.335 27.2431 47.1397 27.2431C50.9445 27.2431 54.0397 24.5105 54.0397 21.1517C54.0397 17.7929 50.9445 15.0603 47.1397 15.0603Z" fill="#FFEC88"/>
      <path d="M29.9227 0C27.3102 0 25.1848 1.87653 25.1848 4.18307C25.1848 6.53235 27.3654 8.36613 29.9227 8.36613C31.748 8.36613 33.4302 7.42455 34.2062 5.97057C34.5076 5.40921 34.6605 4.80778 34.6605 4.18307C34.6605 1.87653 32.5351 0 29.9227 0Z" fill="#9DD8F9"/>
      <path d="M30 0.00176239V8.36365C31.7952 8.33736 33.4412 7.40396 34.2062 5.97058C34.5076 5.40921 34.6605 4.80779 34.6605 4.18307C34.6605 1.89941 32.5768 0.0385104 30 0.00176239Z" fill="#2EACF0"/>
      <path d="M47.1398 15.0603V27.2431C50.9445 27.2431 54.0397 24.5105 54.0397 21.1517C54.0397 17.793 50.9445 15.0604 47.1398 15.0603Z" fill="#FFCB46"/>
      <path d="M12.8602 9.79982V32.5039C19.9513 32.5039 25.7203 27.4111 25.7203 21.1513C25.7203 14.8933 19.952 9.80106 12.8602 9.79982Z" fill="#5546A4"/>
      <path d="M12.8604 15.0603V27.2431C16.665 27.2431 19.7603 24.5105 19.7603 21.1517C19.7603 17.793 16.665 15.0604 12.8604 15.0603Z" fill="#FFCB46"/>
      <path d="M73.08 27.144C71.72 27.144 70.4 26.976 69.12 26.64C67.84 26.304 66.8 25.856 66 25.296L67.56 21.792C68.312 22.288 69.184 22.688 70.176 22.992C71.168 23.296 72.144 23.448 73.104 23.448C74.928 23.448 75.84 22.992 75.84 22.08C75.84 21.6 75.576 21.248 75.048 21.024C74.536 20.784 73.704 20.536 72.552 20.28C71.288 20.008 70.232 19.72 69.384 19.416C68.536 19.096 67.808 18.592 67.2 17.904C66.592 17.216 66.288 16.288 66.288 15.12C66.288 14.096 66.568 13.176 67.128 12.36C67.688 11.528 68.52 10.872 69.624 10.392C70.744 9.912 72.112 9.672 73.728 9.672C74.832 9.672 75.92 9.8 76.992 10.056C78.064 10.296 79.008 10.656 79.824 11.136L78.36 14.664C76.76 13.8 75.208 13.368 73.704 13.368C72.76 13.368 72.072 13.512 71.64 13.8C71.208 14.072 70.992 14.432 70.992 14.88C70.992 15.328 71.248 15.664 71.76 15.888C72.272 16.112 73.096 16.344 74.232 16.584C75.512 16.856 76.568 17.152 77.4 17.472C78.248 17.776 78.976 18.272 79.584 18.96C80.208 19.632 80.52 20.552 80.52 21.72C80.52 22.728 80.24 23.64 79.68 24.456C79.12 25.272 78.28 25.928 77.16 26.424C76.04 26.904 74.68 27.144 73.08 27.144Z" fill="white"/>
      <path d="M95.3151 20.328C95.3151 20.36 95.2911 20.736 95.2431 21.456H85.7871C85.9791 22.128 86.3471 22.648 86.8911 23.016C87.4511 23.368 88.1471 23.544 88.9791 23.544C89.6031 23.544 90.1391 23.456 90.5871 23.28C91.0511 23.104 91.5151 22.816 91.9791 22.416L94.3791 24.912C93.1151 26.32 91.2671 27.024 88.8351 27.024C87.3151 27.024 85.9791 26.736 84.8271 26.16C83.6751 25.584 82.7791 24.784 82.1391 23.76C81.5151 22.736 81.2031 21.576 81.2031 20.28C81.2031 19 81.5071 17.856 82.1151 16.848C82.7391 15.824 83.5951 15.024 84.6831 14.448C85.7711 13.872 86.9951 13.584 88.3551 13.584C89.6511 13.584 90.8271 13.856 91.8831 14.4C92.9391 14.928 93.7711 15.704 94.3791 16.728C95.0031 17.736 95.3151 18.936 95.3151 20.328ZM88.3791 16.824C87.6751 16.824 87.0831 17.024 86.6031 17.424C86.1391 17.824 85.8431 18.368 85.7151 19.056H91.0431C90.9151 18.368 90.6111 17.824 90.1311 17.424C89.6671 17.024 89.0831 16.824 88.3791 16.824Z" fill="white"/>
      <path d="M110.233 20.328C110.233 20.36 110.209 20.736 110.161 21.456H100.705C100.897 22.128 101.265 22.648 101.809 23.016C102.369 23.368 103.065 23.544 103.897 23.544C104.521 23.544 105.057 23.456 105.505 23.28C105.969 23.104 106.433 22.816 106.897 22.416L109.297 24.912C108.033 26.32 106.185 27.024 103.753 27.024C102.233 27.024 100.897 26.736 99.7451 26.16C98.5931 25.584 97.6971 24.784 97.0571 23.76C96.4331 22.736 96.1211 21.576 96.1211 20.28C96.1211 19 96.4251 17.856 97.0331 16.848C97.6571 15.824 98.5131 15.024 99.6011 14.448C100.689 13.872 101.913 13.584 103.273 13.584C104.569 13.584 105.745 13.856 106.801 14.4C107.857 14.928 108.689 15.704 109.297 16.728C109.921 17.736 110.233 18.936 110.233 20.328ZM103.297 16.824C102.593 16.824 102.001 17.024 101.521 17.424C101.057 17.824 100.761 18.368 100.633 19.056H105.961C105.833 18.368 105.529 17.824 105.049 17.424C104.585 17.024 104.001 16.824 103.297 16.824Z" fill="white"/>
      <path d="M117.76 22.248L116.416 23.616V26.808H111.856V9H116.416V18.336L121.072 13.8H126.472L121.072 19.368L126.928 26.808H121.408L117.76 22.248Z" fill="white"/>
      <path d="M140.539 20.328C140.539 20.36 140.515 20.736 140.467 21.456H131.011C131.203 22.128 131.571 22.648 132.115 23.016C132.675 23.368 133.371 23.544 134.203 23.544C134.827 23.544 135.363 23.456 135.811 23.28C136.275 23.104 136.739 22.816 137.203 22.416L139.603 24.912C138.339 26.32 136.491 27.024 134.059 27.024C132.539 27.024 131.203 26.736 130.051 26.16C128.899 25.584 128.003 24.784 127.363 23.76C126.739 22.736 126.427 21.576 126.427 20.28C126.427 19 126.731 17.856 127.339 16.848C127.963 15.824 128.819 15.024 129.907 14.448C130.995 13.872 132.219 13.584 133.579 13.584C134.875 13.584 136.051 13.856 137.107 14.4C138.163 14.928 138.995 15.704 139.603 16.728C140.227 17.736 140.539 18.936 140.539 20.328ZM133.603 16.824C132.899 16.824 132.307 17.024 131.827 17.424C131.363 17.824 131.067 18.368 130.939 19.056H136.267C136.139 18.368 135.835 17.824 135.355 17.424C134.891 17.024 134.307 16.824 133.603 16.824Z" fill="white"/>
      <path d="M146.505 15.36C146.969 14.768 147.569 14.328 148.305 14.04C149.057 13.736 149.913 13.584 150.873 13.584V17.688C150.457 17.64 150.113 17.616 149.841 17.616C148.865 17.616 148.097 17.88 147.537 18.408C146.993 18.936 146.721 19.744 146.721 20.832V26.808H142.161V13.8H146.505V15.36Z" fill="white"/>
</svg>
