<svg width="85" height="54" viewBox="0 0 85 54" fill="none" xmlns="http://www.w3.org/2000/svg">
<path d="M43.7776 3.23859L43.0281 4.64298C42.8278 5.01823 42.3939 5.26066 41.9227 5.26066C41.4539 5.26066 41.0204 5.01906 40.8181 4.64505L40.0616 3.24645L17.0718 12.9053H24.8602C30.0128 12.9053 34.2047 16.6044 34.2047 21.1513V22.7041H49.7953V21.1513C49.7953 16.6044 53.9872 12.9053 59.1399 12.9053H66.9907L43.7776 3.23859Z" fill="#BEF6FF"/>
<path d="M43.7776 3.23859L43.0281 4.64298C42.839 4.99742 42.4406 5.23064 42.0001 5.25569V22.7041H49.7954V21.1513C49.7954 16.6044 53.9873 12.9053 59.14 12.9053H66.9908L43.7776 3.23859Z" fill="#46E4FF"/>
<path d="M24.8587 9.79982C17.7684 9.80106 12 14.8933 12 21.1513C12 27.4111 17.769 32.5039 24.8602 32.5039C31.9513 32.5039 37.7203 27.4111 37.7203 21.1513C37.7203 14.8921 31.9513 9.79982 24.8587 9.79982Z" fill="#7467D3"/>
<path d="M24.8603 15.0603C21.0556 15.0603 17.9603 17.7929 17.9603 21.1517C17.9603 24.5105 21.0556 27.2431 24.8603 27.2431C28.665 27.2431 31.7603 24.5105 31.7603 21.1517C31.7603 17.7929 28.665 15.0603 24.8603 15.0603Z" fill="#FFEC88"/>
<path d="M59.1399 9.79982C52.0487 9.79982 46.2797 14.8921 46.2797 21.1513C46.2797 27.4111 52.0487 32.5039 59.1399 32.5039C66.231 32.5039 72 27.4111 72 21.1513C72 14.8933 66.2316 9.80106 59.1399 9.79982Z" fill="#7467D3"/>
<path d="M59.1398 9.79982V32.5039C66.231 32.5039 72 27.4111 72 21.1513C72 14.8933 66.2316 9.80106 59.1398 9.79982Z" fill="#5546A4"/>
<path d="M59.1397 15.0603C55.335 15.0603 52.2397 17.7929 52.2397 21.1517C52.2397 24.5105 55.335 27.2431 59.1397 27.2431C62.9445 27.2431 66.0397 24.5105 66.0397 21.1517C66.0397 17.7929 62.9445 15.0603 59.1397 15.0603Z" fill="#FFEC88"/>
<path d="M41.9227 0C39.3102 0 37.1848 1.87653 37.1848 4.18307C37.1848 6.53235 39.3654 8.36613 41.9227 8.36613C43.748 8.36613 45.4302 7.42455 46.2062 5.97057C46.5076 5.40921 46.6605 4.80778 46.6605 4.18307C46.6605 1.87653 44.5351 0 41.9227 0Z" fill="#9DD8F9"/>
<path d="M42 0.00176239V8.36365C43.7952 8.33736 45.4412 7.40396 46.2062 5.97058C46.5076 5.40921 46.6605 4.80779 46.6605 4.18307C46.6605 1.89941 44.5768 0.0385104 42 0.00176239Z" fill="#2EACF0"/>
<path d="M59.1398 15.0603V27.2431C62.9445 27.2431 66.0397 24.5105 66.0397 21.1517C66.0397 17.793 62.9445 15.0604 59.1398 15.0603Z" fill="#FFCB46"/>
<path d="M24.8602 9.79982V32.5039C31.9513 32.5039 37.7203 27.4111 37.7203 21.1513C37.7203 14.8933 31.952 9.80106 24.8602 9.79982Z" fill="#5546A4"/>
<path d="M24.8604 15.0603V27.2431C28.665 27.2431 31.7603 24.5105 31.7603 21.1517C31.7603 17.793 28.665 15.0604 24.8604 15.0603Z" fill="#FFCB46"/>
<path d="M7.08 53.144C5.72 53.144 4.4 52.976 3.12 52.64C1.84 52.304 0.8 51.856 0 51.296L1.56 47.792C2.312 48.288 3.184 48.688 4.176 48.992C5.168 49.296 6.144 49.448 7.104 49.448C8.928 49.448 9.84 48.992 9.84 48.08C9.84 47.6 9.576 47.248 9.048 47.024C8.536 46.784 7.704 46.536 6.552 46.28C5.288 46.008 4.232 45.72 3.384 45.416C2.536 45.096 1.808 44.592 1.2 43.904C0.591997 43.216 0.288002 42.288 0.288002 41.12C0.288002 40.096 0.567998 39.176 1.128 38.36C1.688 37.528 2.52 36.872 3.624 36.392C4.744 35.912 6.112 35.672 7.728 35.672C8.832 35.672 9.92 35.8 10.992 36.056C12.064 36.296 13.008 36.656 13.824 37.136L12.36 40.664C10.76 39.8 9.208 39.368 7.704 39.368C6.76 39.368 6.072 39.512 5.64 39.8C5.208 40.072 4.992 40.432 4.992 40.88C4.992 41.328 5.248 41.664 5.76 41.888C6.272 42.112 7.096 42.344 8.232 42.584C9.512 42.856 10.568 43.152 11.4 43.472C12.248 43.776 12.976 44.272 13.584 44.96C14.208 45.632 14.52 46.552 14.52 47.72C14.52 48.728 14.24 49.64 13.68 50.456C13.12 51.272 12.28 51.928 11.16 52.424C10.04 52.904 8.68 53.144 7.08 53.144Z" fill="#7467D3"/>
<path d="M29.3151 46.328C29.3151 46.36 29.2911 46.736 29.2431 47.456H19.7871C19.9791 48.128 20.3471 48.648 20.8911 49.016C21.4511 49.368 22.1471 49.544 22.9791 49.544C23.6031 49.544 24.1391 49.456 24.5871 49.28C25.0511 49.104 25.5151 48.816 25.9791 48.416L28.3791 50.912C27.1151 52.32 25.2671 53.024 22.8351 53.024C21.3151 53.024 19.9791 52.736 18.8271 52.16C17.6751 51.584 16.7791 50.784 16.1391 49.76C15.5151 48.736 15.2031 47.576 15.2031 46.28C15.2031 45 15.5071 43.856 16.1151 42.848C16.7391 41.824 17.5951 41.024 18.6831 40.448C19.7711 39.872 20.9951 39.584 22.3551 39.584C23.6511 39.584 24.8271 39.856 25.8831 40.4C26.9391 40.928 27.7711 41.704 28.3791 42.728C29.0031 43.736 29.3151 44.936 29.3151 46.328ZM22.3791 42.824C21.6751 42.824 21.0831 43.024 20.6031 43.424C20.1391 43.824 19.8431 44.368 19.7151 45.056H25.0431C24.9151 44.368 24.6111 43.824 24.1311 43.424C23.6671 43.024 23.0831 42.824 22.3791 42.824Z" fill="#7467D3"/>
<path d="M44.2331 46.328C44.2331 46.36 44.2091 46.736 44.1611 47.456H34.7051C34.8971 48.128 35.2651 48.648 35.8091 49.016C36.3691 49.368 37.0651 49.544 37.8971 49.544C38.5211 49.544 39.0571 49.456 39.5051 49.28C39.9691 49.104 40.4331 48.816 40.8971 48.416L43.2971 50.912C42.0331 52.32 40.1851 53.024 37.7531 53.024C36.2331 53.024 34.8971 52.736 33.7451 52.16C32.5931 51.584 31.6971 50.784 31.0571 49.76C30.4331 48.736 30.1211 47.576 30.1211 46.28C30.1211 45 30.4251 43.856 31.0331 42.848C31.6571 41.824 32.5131 41.024 33.6011 40.448C34.6891 39.872 35.9131 39.584 37.2731 39.584C38.5691 39.584 39.7451 39.856 40.8011 40.4C41.8571 40.928 42.6891 41.704 43.2971 42.728C43.9211 43.736 44.2331 44.936 44.2331 46.328ZM37.2971 42.824C36.5931 42.824 36.0011 43.024 35.5211 43.424C35.0571 43.824 34.7611 44.368 34.6331 45.056H39.9611C39.8331 44.368 39.5291 43.824 39.0491 43.424C38.5851 43.024 38.0011 42.824 37.2971 42.824Z" fill="#7467D3"/>
<path d="M51.7601 48.248L50.4161 49.616V52.808H45.8561V35H50.4161V44.336L55.0721 39.8H60.4721L55.0721 45.368L60.9281 52.808H55.4081L51.7601 48.248Z" fill="#7467D3"/>
<path d="M74.5391 46.328C74.5391 46.36 74.5151 46.736 74.4671 47.456H65.0111C65.2031 48.128 65.5711 48.648 66.1151 49.016C66.6751 49.368 67.3711 49.544 68.2031 49.544C68.8271 49.544 69.3631 49.456 69.8111 49.28C70.2751 49.104 70.7391 48.816 71.2031 48.416L73.6031 50.912C72.3391 52.32 70.4911 53.024 68.0591 53.024C66.5391 53.024 65.2031 52.736 64.0511 52.16C62.8991 51.584 62.0031 50.784 61.3631 49.76C60.7391 48.736 60.4271 47.576 60.4271 46.28C60.4271 45 60.7311 43.856 61.3391 42.848C61.9631 41.824 62.8191 41.024 63.9071 40.448C64.9951 39.872 66.2191 39.584 67.5791 39.584C68.8751 39.584 70.0511 39.856 71.1071 40.4C72.1631 40.928 72.9951 41.704 73.6031 42.728C74.2271 43.736 74.5391 44.936 74.5391 46.328ZM67.6031 42.824C66.8991 42.824 66.3071 43.024 65.8271 43.424C65.3631 43.824 65.0671 44.368 64.9391 45.056H70.2671C70.1391 44.368 69.8351 43.824 69.3551 43.424C68.8911 43.024 68.3071 42.824 67.6031 42.824Z" fill="#7467D3"/>
<path d="M80.5051 41.36C80.9691 40.768 81.5691 40.328 82.3051 40.04C83.0571 39.736 83.9131 39.584 84.8731 39.584V43.688C84.4571 43.64 84.1131 43.616 83.8411 43.616C82.8651 43.616 82.0971 43.88 81.5371 44.408C80.9931 44.936 80.7211 45.744 80.7211 46.832V52.808H76.1611V39.8H80.5051V41.36Z" fill="#7467D3"/>
</svg>
